<svg xmlns="http://www.w3.org/2000/svg" viewBox="0 0 480 540" width="480" height="540">
  <defs>
    <filter id="cardShadow" x="-20%" y="-20%" width="140%" height="140%"><feDropShadow dx="0" dy="6" stdDeviation="10" flood-color="#000" flood-opacity="0.14"/></filter>
    <filter id="impactShadow" x="-30%" y="-30%" width="160%" height="160%"><feDropShadow dx="0" dy="10" stdDeviation="14" flood-color="#000" flood-opacity="0.3"/></filter>
  </defs>
<g id="PROP-PHONE" transform="translate(240, 270) rotate(0) scale(0.85)">
        <rect x="-150" y="-260" width="300" height="520" rx="32" fill="#0f172a" stroke="#334155" stroke-width="6" filter="url(#cardShadow)"/>
        <rect x="-135" y="-230" width="270" height="460" rx="18" fill="#ffffff"/>
        <!-- Notch -->
        <rect x="-40" y="-245" width="80" height="16" rx="8" fill="#0f172a"/>
        <!-- Instagram Header -->
        <g transform="translate(-115, -195)">
          <circle cx="16" cy="16" r="16" fill="#ec4899"/>
          <text x="40" y="22" font-family="sans-serif" font-size="14" font-weight="bold" fill="#0f172a">@celeb_life</text>
          <circle cx="120" cy="18" r="6" fill="#38bdf8"/> <!-- Verified Badge -->
        </g>
        <!-- Photo Post: Single Celery Stick -->
        <rect x="-115" y="-145" width="230" height="185" rx="8" fill="#f0fdf4" stroke="#dcfce7" stroke-width="2"/>
        <line x1="-65" y1="20" x2="65" y2="-20" stroke="#16a34a" stroke-width="14" stroke-linecap="round"/>
        <text x="0" y="15" font-family="'Impact', sans-serif" font-size="14" fill="#15803d" text-anchor="middle">DINNER: 1 CELERY</text>
        <!-- Likes & Comments -->
        <g transform="translate(-105, 80)">
          <path d="M 0 0 C -6 -10 -18 0 0 16 C 18 0 6 -10 0 0 Z" fill="#ef4444"/>
          <text x="25" y="12" font-family="sans-serif" font-size="15" font-weight="bold" fill="#0f172a">2.4M likes</text>
          <text x="0" y="38" font-family="sans-serif" font-size="12" fill="#64748b">"So authentic! Inspiring!"</text>
        </g>
      </g>
</svg>