<svg xmlns="http://www.w3.org/2000/svg" viewBox="0 0 480 480" width="480" height="480">
  <defs>
    <filter id="cardShadow" x="-20%" y="-20%" width="140%" height="140%"><feDropShadow dx="0" dy="6" stdDeviation="10" flood-color="#000" flood-opacity="0.14"/></filter>
    <filter id="impactShadow" x="-30%" y="-30%" width="160%" height="160%"><feDropShadow dx="0" dy="10" stdDeviation="14" flood-color="#000" flood-opacity="0.3"/></filter>
  </defs>

  <rect x="8" y="8" width="464" height="464" rx="18" fill="#ffffff" stroke="#e2e8f0" stroke-width="4" filter="url(#cardShadow)"/>
  <g transform="translate(240 300)">
    <g id="asset-blonde-deadpan_classic" class="stick-figure" data-gender="female" data-expression="deadpan_classic" data-pose="default" transform="translate(0, 3.0015999256791646) rotate(0) scale(0.95)" opacity="1">
      <!-- Floor Drop Shadow -->
      <ellipse cx="0" cy="215.1010907860176" rx="65" ry="14" fill="#111111" opacity="0.16"/>

      <!-- Legs (Back to Front) -->
      <g id="legs" stroke="#111111" stroke-width="8" stroke-linecap="round" stroke-linejoin="round" fill="none">
        <line x1="0" y1="55" x2="-39.905082836800695" y2="130.0505453930088"/>
        <line x1="-39.905082836800695" y1="130.0505453930088" x2="-79.81016567360139" y2="205.1010907860176"/>

        <line x1="0" y1="55" x2="39.90508283680072" y2="130.0505453930088"/>
        <line x1="39.90508283680072" y1="130.0505453930088" x2="79.81016567360145" y2="205.1010907860176"/>
      </g>

      <!-- Spine & Torso with arms -->
      <g id="torso" transform="rotate(-1.0595234934310993 0 55)">
        <line x1="0" y1="-120" x2="0" y2="55" stroke="#111111" stroke-width="8" stroke-linecap="round"/>

        
        <!-- Glamour Red Carpet Evening Gown -->
        <path d="M -30 -85 L 30 -85 L 42 15 L 65 140 C 20 155 -20 155 -65 140 L -42 15 Z"
              fill="#be123c" stroke="#881337" stroke-width="5" stroke-linejoin="round"/>
        <!-- Sweetheart Neckline & Gold Belt -->
        <path d="M -30 -85 Q 0 -60 30 -85" fill="none" stroke="#fff1f2" stroke-width="3"/>
        <rect x="-32" y="5" width="64" height="8" rx="2" fill="#eab308" stroke="#ca8a04" stroke-width="2"/>
        <circle cx="0" cy="9" r="6" fill="#facc15"/>
      

        <!-- Left Arm with 2-finger V hand -->
        <g id="left-arm" class="arms" stroke="#111111" stroke-width="7" stroke-linecap="round" stroke-linejoin="round" fill="none">
          <line x1="0" y1="-95" x2="-73.18134471636112" y2="-49.260327069027404"/>
          <line x1="-73.18134471636112" y1="-49.260327069027404" x2="-111.6569359564131" y2="18.589719937061226"/>
          <!-- 2-finger open V hand -->
          <line x1="-111.6569359564131" y1="18.589719937061226" x2="-133.6569359564131" y2="6.589719937061226"/>
          <line x1="-111.6569359564131" y1="18.589719937061226" x2="-129.6569359564131" y2="38.589719937061226"/>
          
        </g>

        <!-- Right Arm with 2-finger V hand -->
        <g id="right-arm" class="arms" stroke="#111111" stroke-width="7" stroke-linecap="round" stroke-linejoin="round" fill="none">
          <line x1="0" y1="-95" x2="79.44703100972168" y2="-59.48789102383873"/>
          <line x1="79.44703100972168" y1="-59.48789102383873" x2="141.05135216510212" y2="-11.645361669876394"/>
          <!-- 2-finger open V hand -->
          <line x1="141.05135216510212" y1="-11.645361669876394" x2="163.05135216510212" y2="-25.645361669876394"/>
          <line x1="141.05135216510212" y1="-11.645361669876394" x2="161.05135216510212" y2="6.354638330123606"/>
          
        </g>

        <!-- HEAD GROUP (Crisp Casually Explained / Alex Meyers proportions) -->
        <g id="head" transform="translate(0, -120) rotate(-1.3477105715709856) scale(0.72)">
          
          <!-- 1. Back Hair Layer (Flows behind head and shoulders) -->
          
          <!-- Big 90s Glamour Blonde Volume -->
          <path d="
            M -95 10
            C -130 -40 -105 -130 0 -130
            C 105 -130 130 -40 95 10
            C 120 80 115 150 85 195
            C 65 140 65 90 50 40
            L -50 40
            C -65 90 -65 140 -85 195
            C -115 150 -120 80 -95 10 Z"
            fill="#facc15" stroke="#ca8a04" stroke-width="6" stroke-linejoin="round"/>
          <path d="M -85 60 Q -105 110 -75 160" fill="none" stroke="#eab308" stroke-width="5" stroke-linecap="round"/>
          <path d="M 85 60 Q 105 110 75 160" fill="none" stroke="#eab308" stroke-width="5" stroke-linecap="round"/>
        

          <!-- 2. Warm Creamy Peach Head Skin (tilted egg/oval shape) -->
          <path id="head-skin" d="
            M -68 15
            C -82 -40 -68 -80 -18 -85
            C 38 -87 76 -50 78 15
            C 78 68 48 88 5 88
            C -40 88 -68 70 -68 15 Z"
            fill="#fed89b" stroke="#111111" stroke-width="8" stroke-linejoin="round"/>

          <!-- Nose/Cheek Tick Mark (from reference image) -->
          <path d="M -12 8 L -10 20" fill="none" stroke="#111111" stroke-width="5" stroke-linecap="round"/>

          <!-- 3. Facial Features -->
          <g id="face">
            
    <path d="M -45 -48 Q -25 -62 -5 -48" fill="none" stroke="#111111" stroke-width="6" stroke-linecap="round"/>
    <path d="M 22 -44 Q 42 -58 62 -44" fill="none" stroke="#111111" stroke-width="6" stroke-linecap="round"/>
  
            
      <line x1="-36" y1="-16" x2="-12" y2="-16" stroke="#111" stroke-width="7" stroke-linecap="round"/>
      <line x1="26" y1="-14" x2="50" y2="-14" stroke="#111" stroke-width="7" stroke-linecap="round"/>
    
            
      <path d="M -44 -28 L -52 -36 M -36 -34 L -40 -44 M -20 -36 L -20 -46" stroke="#111" stroke-width="4" stroke-linecap="round"/>
      <path d="M 44 -26 L 52 -34 M 36 -32 L 40 -42 M 20 -34 L 20 -44" stroke="#111" stroke-width="4" stroke-linecap="round"/>
    
      <ellipse cx="-48" cy="18" rx="14" ry="8" fill="#fb7185" opacity="0.6"/>
      <ellipse cx="48" cy="18" rx="14" ry="8" fill="#fb7185" opacity="0.6"/>
    
            
      <g id="mouth" transform="translate(0, 32) rotate(4)">
        <line x1="-28" y1="0" x2="22" y2="0" stroke="#111111" stroke-width="7" stroke-linecap="round"/>
      </g>
    
          </g>

          <!-- 4. Front Hair Layer (Bangs, Strands, Clips sit in front of Face) -->
          
          <!-- Side-Swept High Volume Blonde Fringe & Outer Face Layers -->
          <g>
            <path d="
              M -60 -45
              C -35 -60 15 -62 48 -45
              L 42 -36
              C 12 -52 -30 -50 -54 -36 Z"
              fill="#fde047" stroke="#ca8a04" stroke-width="3"/>
            <!-- Left & Right Voluminous Curls Hugging Outer Cheek Edge -->
            <path d="M -64 -25 C -78 10 -75 50 -58 75 C -70 40 -70 0 -58 -18 Z" fill="#fde047" stroke="#ca8a04" stroke-width="3"/>
            <path d="M 64 -25 C 78 10 75 50 58 75 C 70 40 70 0 58 -18 Z" fill="#fde047" stroke="#ca8a04" stroke-width="3"/>
            <path d="M -35 -70 Q 0 -85 30 -70" fill="none" stroke="#ffffff" stroke-width="4" stroke-linecap="round" opacity="0.8"/>
          </g>
        
        </g>
      </g>
    </g>
  </g>
</svg>