<svg xmlns="http://www.w3.org/2000/svg" viewBox="0 0 960 540" width="960" height="540">
  <defs>
    <filter id="cardShadow" x="-20%" y="-20%" width="140%" height="140%"><feDropShadow dx="0" dy="6" stdDeviation="10" flood-color="#000" flood-opacity="0.14"/></filter>
    <filter id="impactShadow" x="-30%" y="-30%" width="160%" height="160%"><feDropShadow dx="0" dy="10" stdDeviation="14" flood-color="#000" flood-opacity="0.3"/></filter>
  </defs>

        <rect x="-4000" y="-4000" width="10000" height="10000" fill="#270a14"/>
        <!-- Heavy Gothic Burgundy Drapery -->
        <g fill="#450a0a" stroke="#1c0404" stroke-width="8">
          <path d="M 100 -200 Q 200 400 350 740 L 0 740 L 0 -200 Z"/>
          <path d="M 1820 -200 Q 1720 400 1570 740 L 1920 740 L 1920 -200 Z"/>
        </g>
        <!-- Arched Victorian Window with Gloomy Moonlight -->
        <g transform="translate(960, 420)">
          <path d="M -160 220 L -160 -100 C -160 -240 160 -240 160 -100 L 160 220 Z" fill="#1e293b" stroke="#0f172a" stroke-width="12"/>
          <path d="M -140 200 L -140 -90 C -140 -210 140 -210 140 -90 L 140 200 Z" fill="#475569" opacity="0.6"/>
          <line x1="0" y1="-210" x2="0" y2="200" stroke="#0f172a" stroke-width="8"/>
          <line x1="-140" y1="0" x2="140" y2="0" stroke="#0f172a" stroke-width="8"/>
        </g>
        <!-- Polished Dark Mahogany Floor -->
        <rect x="-4000" y="740" width="10000" height="4000" fill="#1c0a00"/>
        <line x1="-4000" y1="740" x2="6000" y2="740" stroke="#451a03" stroke-width="6"/>
      
</svg>